<svg width="500" height="50" viewBox="0 0 500 50" fill="none" xmlns="http://www.w3.org/2000/svg">
<line x1="3" y1="29.5071" x2="3" y2="20.4929" stroke="white" stroke-width="2" stroke-linecap="round"/>
<line x1="7" y1="37.3851" x2="7" y2="12.6149" stroke="white" stroke-width="2" stroke-linecap="round"/>
<line x1="11" y1="37.4464" x2="11" y2="12.5536" stroke="white" stroke-width="2" stroke-linecap="round"/>
<line x1="15" y1="30.8138" x2="15" y2="19.1861" stroke="white" stroke-width="2" stroke-linecap="round"/>
<line x1="19" y1="39.3856" x2="19" y2="10.6143" stroke="white" stroke-width="2" stroke-linecap="round"/>
<line x1="23" y1="31.1306" x2="23" y2="18.8694" stroke="white" stroke-width="2" stroke-linecap="round"/>
<line x1="27" y1="38.5437" x2="27" y2="11.4563" stroke="white" stroke-width="2" stroke-linecap="round"/>
<line x1="31" y1="31.5956" x2="31" y2="18.4044" stroke="white" stroke-width="2" stroke-linecap="round"/>
<line x1="35" y1="43.0758" x2="35" y2="6.92413" stroke="white" stroke-width="2" stroke-linecap="round"/>
<line x1="39" y1="35.5936" x2="39" y2="14.4064" stroke="white" stroke-width="2" stroke-linecap="round"/>
<line x1="43" y1="40.2687" x2="43" y2="9.73121" stroke="white" stroke-width="2" stroke-linecap="round"/>
<line x1="47" y1="31.7975" x2="47" y2="18.2024" stroke="white" stroke-width="2" stroke-linecap="round"/>
<line x1="51" y1="39.6492" x2="51" y2="10.3508" stroke="white" stroke-width="2" stroke-linecap="round"/>
<line x1="55" y1="42.9159" x2="55" y2="7.08407" stroke="white" stroke-width="2" stroke-linecap="round"/>
<line x1="59" y1="29.1467" x2="59" y2="20.8533" stroke="white" stroke-width="2" stroke-linecap="round"/>
<line x1="63" y1="29.7696" x2="63" y2="20.2304" stroke="white" stroke-width="2" stroke-linecap="round"/>
<line x1="67" y1="43.282" x2="67" y2="6.71801" stroke="white" stroke-width="2" stroke-linecap="round"/>
<line x1="71" y1="30.824" x2="71" y2="19.176" stroke="white" stroke-width="2" stroke-linecap="round"/>
<line x1="75" y1="42.0769" x2="75" y2="7.92312" stroke="white" stroke-width="2" stroke-linecap="round"/>
<line x1="79" y1="42.6985" x2="79" y2="7.30155" stroke="white" stroke-width="2" stroke-linecap="round"/>
<line x1="83" y1="40.7094" x2="83" y2="9.29058" stroke="white" stroke-width="2" stroke-linecap="round"/>
<line x1="87" y1="39.7122" x2="87" y2="10.2878" stroke="white" stroke-width="2" stroke-linecap="round"/>
<line x1="91" y1="37.5481" x2="91" y2="12.4519" stroke="white" stroke-width="2" stroke-linecap="round"/>
<line x1="95" y1="29.5121" x2="95" y2="20.4879" stroke="white" stroke-width="2" stroke-linecap="round"/>
<line x1="99" y1="43.3021" x2="99" y2="6.69791" stroke="white" stroke-width="2" stroke-linecap="round"/>
<line x1="103" y1="35.9672" x2="103" y2="14.0327" stroke="white" stroke-width="2" stroke-linecap="round"/>
<line x1="107" y1="31.3251" x2="107" y2="18.6749" stroke="white" stroke-width="2" stroke-linecap="round"/>
<line x1="111" y1="38.7749" x2="111" y2="11.2251" stroke="white" stroke-width="2" stroke-linecap="round"/>
<line x1="115" y1="33.1514" x2="115" y2="16.8486" stroke="white" stroke-width="2" stroke-linecap="round"/>
<line x1="119" y1="31.4038" x2="119" y2="18.5961" stroke="white" stroke-width="2" stroke-linecap="round"/>
<line x1="123" y1="36.2512" x2="123" y2="13.7488" stroke="white" stroke-width="2" stroke-linecap="round"/>
<line x1="127" y1="43.9389" x2="127" y2="6.06112" stroke="white" stroke-width="2" stroke-linecap="round"/>
<line x1="131" y1="40.3796" x2="131" y2="9.6204" stroke="white" stroke-width="2" stroke-linecap="round"/>
<line x1="135" y1="37.9619" x2="135" y2="12.038" stroke="white" stroke-width="2" stroke-linecap="round"/>
<line x1="139" y1="38.5322" x2="139" y2="11.4678" stroke="white" stroke-width="2" stroke-linecap="round"/>
<line x1="143" y1="29.635" x2="143" y2="20.365" stroke="white" stroke-width="2" stroke-linecap="round"/>
<line x1="147" y1="29.4817" x2="147" y2="20.5184" stroke="white" stroke-width="2" stroke-linecap="round"/>
<line x1="151" y1="43.2529" x2="151" y2="6.74708" stroke="white" stroke-width="2" stroke-linecap="round"/>
<line x1="155" y1="43.7205" x2="155" y2="6.27943" stroke="white" stroke-width="2" stroke-linecap="round"/>
<line x1="159" y1="32.318" x2="159" y2="17.682" stroke="white" stroke-width="2" stroke-linecap="round"/>
<line x1="163" y1="30.6306" x2="163" y2="19.3694" stroke="white" stroke-width="2" stroke-linecap="round"/>
<line x1="167" y1="31.477" x2="167" y2="18.523" stroke="white" stroke-width="2" stroke-linecap="round"/>
<line x1="171" y1="39.8724" x2="171" y2="10.1277" stroke="white" stroke-width="2" stroke-linecap="round"/>
<line x1="175" y1="40.55" x2="175" y2="9.45006" stroke="white" stroke-width="2" stroke-linecap="round"/>
<line x1="179" y1="41.9441" x2="179" y2="8.05595" stroke="white" stroke-width="2" stroke-linecap="round"/>
<line x1="183" y1="30.4111" x2="183" y2="19.5888" stroke="white" stroke-width="2" stroke-linecap="round"/>
<line x1="187" y1="35.0444" x2="187" y2="14.9556" stroke="white" stroke-width="2" stroke-linecap="round"/>
<line x1="191" y1="42.1608" x2="191" y2="7.8392" stroke="white" stroke-width="2" stroke-linecap="round"/>
<line x1="195" y1="31.2562" x2="195" y2="18.7437" stroke="white" stroke-width="2" stroke-linecap="round"/>
<line x1="199" y1="31.8558" x2="199" y2="18.1442" stroke="white" stroke-width="2" stroke-linecap="round"/>
<line x1="203" y1="35.9702" x2="203" y2="14.0298" stroke="white" stroke-width="2" stroke-linecap="round"/>
<line x1="207" y1="34.3202" x2="207" y2="15.6798" stroke="white" stroke-width="2" stroke-linecap="round"/>
<line x1="211" y1="40.8798" x2="211" y2="9.12017" stroke="white" stroke-width="2" stroke-linecap="round"/>
<line x1="215" y1="38.4203" x2="215" y2="11.5797" stroke="white" stroke-width="2" stroke-linecap="round"/>
<line x1="219" y1="37.4379" x2="219" y2="12.5621" stroke="white" stroke-width="2" stroke-linecap="round"/>
<line x1="223" y1="42.2489" x2="223" y2="7.75112" stroke="white" stroke-width="2" stroke-linecap="round"/>
<line x1="227" y1="31.3535" x2="227" y2="18.6465" stroke="white" stroke-width="2" stroke-linecap="round"/>
<line x1="231" y1="41.337" x2="231" y2="8.66298" stroke="white" stroke-width="2" stroke-linecap="round"/>
<line x1="235" y1="30.6977" x2="235" y2="19.3023" stroke="white" stroke-width="2" stroke-linecap="round"/>
<line x1="239" y1="42.353" x2="239" y2="7.647" stroke="white" stroke-width="2" stroke-linecap="round"/>
<line x1="243" y1="38.986" x2="243" y2="11.014" stroke="white" stroke-width="2" stroke-linecap="round"/>
<line x1="247" y1="30.7188" x2="247" y2="19.2812" stroke="white" stroke-width="2" stroke-linecap="round"/>
<line x1="251" y1="41.5351" x2="251" y2="8.46488" stroke="white" stroke-width="2" stroke-linecap="round"/>
<line x1="255" y1="29.5679" x2="255" y2="20.432" stroke="white" stroke-width="2" stroke-linecap="round"/>
<line x1="259" y1="37.6314" x2="259" y2="12.3685" stroke="white" stroke-width="2" stroke-linecap="round"/>
<line x1="263" y1="43.472" x2="263" y2="6.52801" stroke="white" stroke-width="2" stroke-linecap="round"/>
<line x1="267" y1="36.5082" x2="267" y2="13.4918" stroke="white" stroke-width="2" stroke-linecap="round"/>
<line x1="271" y1="41.0103" x2="271" y2="8.98973" stroke="white" stroke-width="2" stroke-linecap="round"/>
<line x1="275" y1="40.9219" x2="275" y2="9.07816" stroke="white" stroke-width="2" stroke-linecap="round"/>
<line x1="279" y1="31.5466" x2="279" y2="18.4534" stroke="white" stroke-width="2" stroke-linecap="round"/>
<line x1="283" y1="36.7851" x2="283" y2="13.2149" stroke="white" stroke-width="2" stroke-linecap="round"/>
<line x1="287" y1="38.873" x2="287" y2="11.127" stroke="white" stroke-width="2" stroke-linecap="round"/>
<line x1="291" y1="33.3657" x2="291" y2="16.6344" stroke="white" stroke-width="2" stroke-linecap="round"/>
<line x1="295" y1="39.4408" x2="295" y2="10.5592" stroke="white" stroke-width="2" stroke-linecap="round"/>
<line x1="299" y1="39.4984" x2="299" y2="10.5016" stroke="white" stroke-width="2" stroke-linecap="round"/>
<line x1="303" y1="37.7429" x2="303" y2="12.257" stroke="white" stroke-width="2" stroke-linecap="round"/>
<line x1="307" y1="39.142" x2="307" y2="10.858" stroke="white" stroke-width="2" stroke-linecap="round"/>
<line x1="311" y1="42.3282" x2="311" y2="7.67173" stroke="white" stroke-width="2" stroke-linecap="round"/>
<line x1="315" y1="43.067" x2="315" y2="6.93292" stroke="white" stroke-width="2" stroke-linecap="round"/>
<line x1="319" y1="30.3893" x2="319" y2="19.6108" stroke="white" stroke-width="2" stroke-linecap="round"/>
<line x1="323" y1="29.6882" x2="323" y2="20.3118" stroke="white" stroke-width="2" stroke-linecap="round"/>
<line x1="327" y1="42.6712" x2="327" y2="7.32883" stroke="white" stroke-width="2" stroke-linecap="round"/>
<line x1="331" y1="36.1273" x2="331" y2="13.8727" stroke="white" stroke-width="2" stroke-linecap="round"/>
<line x1="335" y1="33.6306" x2="335" y2="16.3694" stroke="white" stroke-width="2" stroke-linecap="round"/>
<line x1="339" y1="32.9152" x2="339" y2="17.0848" stroke="white" stroke-width="2" stroke-linecap="round"/>
<line x1="343" y1="31.0026" x2="343" y2="18.9974" stroke="white" stroke-width="2" stroke-linecap="round"/>
<line x1="347" y1="29.5983" x2="347" y2="20.4016" stroke="white" stroke-width="2" stroke-linecap="round"/>
<line x1="351" y1="41.3923" x2="351" y2="8.60778" stroke="white" stroke-width="2" stroke-linecap="round"/>
<line x1="355" y1="32.4121" x2="355" y2="17.5878" stroke="white" stroke-width="2" stroke-linecap="round"/>
<line x1="359" y1="30.2484" x2="359" y2="19.7517" stroke="white" stroke-width="2" stroke-linecap="round"/>
<line x1="363" y1="30.8208" x2="363" y2="19.1792" stroke="white" stroke-width="2" stroke-linecap="round"/>
<line x1="367" y1="42.7509" x2="367" y2="7.24914" stroke="white" stroke-width="2" stroke-linecap="round"/>
<line x1="371" y1="33.895" x2="371" y2="16.1051" stroke="white" stroke-width="2" stroke-linecap="round"/>
<line x1="375" y1="38.7767" x2="375" y2="11.2233" stroke="white" stroke-width="2" stroke-linecap="round"/>
<line x1="379" y1="37.4803" x2="379" y2="12.5197" stroke="white" stroke-width="2" stroke-linecap="round"/>
<line x1="383" y1="35.2501" x2="383" y2="14.7499" stroke="white" stroke-width="2" stroke-linecap="round"/>
<line x1="387" y1="30.4211" x2="387" y2="19.5788" stroke="white" stroke-width="2" stroke-linecap="round"/>
<line x1="391" y1="36.3885" x2="391" y2="13.6114" stroke="white" stroke-width="2" stroke-linecap="round"/>
<line x1="395" y1="40.4421" x2="395" y2="9.55791" stroke="white" stroke-width="2" stroke-linecap="round"/>
<line x1="399" y1="33.2397" x2="399" y2="16.7603" stroke="white" stroke-width="2" stroke-linecap="round"/>
<line x1="403" y1="36.0468" x2="403" y2="13.9532" stroke="white" stroke-width="2" stroke-linecap="round"/>
<line x1="407" y1="36.7928" x2="407" y2="13.2072" stroke="white" stroke-width="2" stroke-linecap="round"/>
<line x1="411" y1="36.6833" x2="411" y2="13.3167" stroke="white" stroke-width="2" stroke-linecap="round"/>
<line x1="415" y1="33.598" x2="415" y2="16.402" stroke="white" stroke-width="2" stroke-linecap="round"/>
<line x1="419" y1="41.1207" x2="419" y2="8.87931" stroke="white" stroke-width="2" stroke-linecap="round"/>
<line x1="423" y1="37.7215" x2="423" y2="12.2785" stroke="white" stroke-width="2" stroke-linecap="round"/>
<line x1="427" y1="34.5486" x2="427" y2="15.4513" stroke="white" stroke-width="2" stroke-linecap="round"/>
<line x1="431" y1="39.7272" x2="431" y2="10.2728" stroke="white" stroke-width="2" stroke-linecap="round"/>
<line x1="435" y1="30.6837" x2="435" y2="19.3163" stroke="white" stroke-width="2" stroke-linecap="round"/>
<line x1="439" y1="30.2924" x2="439" y2="19.7076" stroke="white" stroke-width="2" stroke-linecap="round"/>
<line x1="443" y1="37.8447" x2="443" y2="12.1553" stroke="white" stroke-width="2" stroke-linecap="round"/>
<line x1="447" y1="36.8906" x2="447" y2="13.1094" stroke="white" stroke-width="2" stroke-linecap="round"/>
<line x1="451" y1="43.984" x2="451" y2="6.01597" stroke="white" stroke-width="2" stroke-linecap="round"/>
<line x1="455" y1="43.6037" x2="455" y2="6.39635" stroke="white" stroke-width="2" stroke-linecap="round"/>
<line x1="459" y1="32.8694" x2="459" y2="17.1306" stroke="white" stroke-width="2" stroke-linecap="round"/>
<line x1="463" y1="29.957" x2="463" y2="20.0431" stroke="white" stroke-width="2" stroke-linecap="round"/>
<line x1="467" y1="38.3113" x2="467" y2="11.6887" stroke="white" stroke-width="2" stroke-linecap="round"/>
<line x1="471" y1="33.1514" x2="471" y2="16.8486" stroke="white" stroke-width="2" stroke-linecap="round"/>
<line x1="475" y1="43.7154" x2="475" y2="6.28459" stroke="white" stroke-width="2" stroke-linecap="round"/>
<line x1="479" y1="36.2047" x2="479" y2="13.7953" stroke="white" stroke-width="2" stroke-linecap="round"/>
<line x1="483" y1="33.6382" x2="483" y2="16.3618" stroke="white" stroke-width="2" stroke-linecap="round"/>
<line x1="487" y1="37.5933" x2="487" y2="12.4067" stroke="white" stroke-width="2" stroke-linecap="round"/>
<line x1="491" y1="31.7137" x2="491" y2="18.2863" stroke="white" stroke-width="2" stroke-linecap="round"/>
<line x1="495" y1="43.5056" x2="495" y2="6.49446" stroke="white" stroke-width="2" stroke-linecap="round"/>
</svg>
